<svg xmlns="http://www.w3.org/2000/svg" width="80" height="80" viewBox="0 0 80 80"><defs><style>.a{fill:#d1c8c3;}</style></defs><g transform="translate(-484 -454)"><rect class="a" width="80" height="80" transform="translate(484 454)"/><g transform="translate(394.149 471)"><g transform="translate(114.734 -1)"><g transform="translate(0 0)"><path d="M131.717-1a.772.772,0,0,0-.817.817V11.25a3.28,3.28,0,0,1-2.45,3.163V-.183A.772.772,0,0,0,127.634-1a.772.772,0,0,0-.817.817v14.6a3.28,3.28,0,0,1-2.45-3.163V-.183A.772.772,0,0,0,123.551-1a.772.772,0,0,0-.817.817V11.25a4.918,4.918,0,0,0,4.083,4.83V23.5a4.044,4.044,0,0,0-4.083,4.083V43.917A4.044,4.044,0,0,0,126.817,48h1.633a4.044,4.044,0,0,0,4.083-4.083V27.583a4.044,4.044,0,0,0-4.083-4.083V16.08a4.918,4.918,0,0,0,4.083-4.83V-.183A.772.772,0,0,0,131.717-1ZM130.9,27.583V43.917a2.406,2.406,0,0,1-2.45,2.45h-1.633a2.406,2.406,0,0,1-2.45-2.45V27.583a2.406,2.406,0,0,1,2.45-2.45h1.633A2.406,2.406,0,0,1,130.9,27.583Z" transform="translate(-122.734 1)"/><path d="M328.351,374.467a.817.817,0,1,0,.817.817A.772.772,0,0,0,328.351,374.467Z" transform="translate(-303.482 -338.534)"/><path d="M292.216,23.83V.633A1.638,1.638,0,0,0,290.583-1,4.428,4.428,0,0,0,287.234.633a10.929,10.929,0,0,0-2.368,6.86v6.043a20.223,20.223,0,0,0,2.757,10.178,4.037,4.037,0,0,0-2.757,3.869V43.917A4.044,4.044,0,0,0,288.949,48h1.633a4.044,4.044,0,0,0,4.083-4.083V27.583A4.04,4.04,0,0,0,292.216,23.83ZM286.5,7.493a9.519,9.519,0,0,1,2.042-5.88,2.478,2.478,0,0,1,2.042-.98V23.5h-1.143a18.2,18.2,0,0,1-2.94-9.963V7.493Zm6.533,36.423a2.406,2.406,0,0,1-2.45,2.45h-1.633a2.406,2.406,0,0,1-2.45-2.45V27.583a2.406,2.406,0,0,1,2.45-2.45h1.633a2.406,2.406,0,0,1,2.45,2.45Z" transform="translate(-264.897 1)"/><path d="M166.217,374.467a.817.817,0,1,0,.817.817A.771.771,0,0,0,166.217,374.467Z" transform="translate(-156.864 -338.534)"/></g></g></g></g></svg>