<svg xmlns="http://www.w3.org/2000/svg" width="80" height="80" viewBox="0 0 80 80"><defs><style>.a{fill:#d1c8c3;}</style></defs><g transform="translate(-576 -454)"><rect class="a" width="80" height="80" transform="translate(576 454)"/><g transform="translate(492.067 469.458)"><g transform="translate(109.933 -1)"><path d="M137.534-1H111.658A1.727,1.727,0,0,0,109.933.725V47.3a.862.862,0,0,0,.863.863v.863a1.727,1.727,0,0,0,1.725,1.725h2.588a1.727,1.727,0,0,0,1.725-1.725v-.863h15.526v.863a1.727,1.727,0,0,0,1.725,1.725h2.588a1.727,1.727,0,0,0,1.725-1.725v-.863a.862.862,0,0,0,.863-.863V.725A1.727,1.727,0,0,0,137.534-1Zm0,39.677h-.863a.863.863,0,0,1-.863-.863V32.639a.863.863,0,0,1,.863-.863h.863Zm-.863-8.625a2.591,2.591,0,0,0-2.588,2.588v5.175a2.591,2.591,0,0,0,2.588,2.588h.863V46.44H111.658V24.876h25.877v5.175Zm.863-6.9H111.658V21.426h25.877Zm0-9.488h-.863a.863.863,0,0,1-.863-.863V7.625a.863.863,0,0,1,.863-.863h.863Zm0-12.938V5.038h-.863a2.591,2.591,0,0,0-2.588,2.588V12.8a2.591,2.591,0,0,0,2.588,2.588h.863V19.7H111.658V.725h25.877Zm-22.426,48.3h-2.588v-.863h2.588Zm21.564,0h-2.588v-.863h2.588Z" transform="translate(-109.933 1)"/></g></g></g></svg>