<svg xmlns="http://www.w3.org/2000/svg" width="36" height="36" viewBox="0 0 36 36"><g transform="translate(-0.449)"><path d="M36.358,10.584a13.152,13.152,0,0,0-.837-4.367A9.223,9.223,0,0,0,30.252.949,13.193,13.193,0,0,0,25.884.113C23.957.021,23.345,0,18.456,0s-5.5.021-7.421.105A13.163,13.163,0,0,0,6.667.942,8.786,8.786,0,0,0,3.474,3.024,8.863,8.863,0,0,0,1.4,6.21a13.188,13.188,0,0,0-.837,4.367C.47,12.5.449,13.116.449,18s.021,5.5.106,7.419a13.151,13.151,0,0,0,.837,4.367A9.221,9.221,0,0,0,6.66,35.058a13.2,13.2,0,0,0,4.368.837c1.92.085,2.532.105,7.421.105s5.5-.021,7.421-.105a13.156,13.156,0,0,0,4.368-.837,9.209,9.209,0,0,0,5.269-5.267,13.2,13.2,0,0,0,.837-4.367c.084-1.92.106-2.532.106-7.419S36.442,12.5,36.358,10.584Zm-3.243,14.7a9.866,9.866,0,0,1-.619,3.341,5.972,5.972,0,0,1-3.419,3.418,9.906,9.906,0,0,1-3.341.619c-1.9.085-2.469.105-7.273.105s-5.381-.021-7.273-.105a9.866,9.866,0,0,1-3.341-.619A5.541,5.541,0,0,1,5.781,30.7,5.6,5.6,0,0,1,4.437,28.63a9.9,9.9,0,0,1-.619-3.341c-.085-1.9-.106-2.469-.106-7.272s.021-5.38.106-7.272a9.861,9.861,0,0,1,.619-3.341A5.472,5.472,0,0,1,5.788,5.338,5.59,5.59,0,0,1,7.856,3.995,9.913,9.913,0,0,1,11.2,3.376c1.9-.084,2.469-.105,7.273-.105s5.381.021,7.273.105a9.871,9.871,0,0,1,3.341.619,5.537,5.537,0,0,1,2.068,1.343A5.6,5.6,0,0,1,32.5,7.405a9.906,9.906,0,0,1,.619,3.341c.084,1.9.106,2.468.106,7.272S33.2,23.384,33.115,25.282Zm0,0" transform="translate(0 0)"/><path d="M134.438,124.5a9.485,9.485,0,1,0,9.489,9.485A9.489,9.489,0,0,0,134.438,124.5Zm0,15.638a6.153,6.153,0,1,1,6.155-6.153A6.155,6.155,0,0,1,134.438,140.138Zm0,0" transform="translate(-115.982 -115.982)"/><path d="M366.65,90.7a2.1,2.1,0,1,1-2.1-2.1A2.1,2.1,0,0,1,366.65,90.7Zm0,0" transform="translate(-336.442 -82.347)"/></g></svg>