<svg xmlns="http://www.w3.org/2000/svg" width="80" height="80" viewBox="0 0 80 80"><defs><style>.a{fill:#d1c8c3;}</style></defs><g transform="translate(-944 -454)"><rect class="a" width="80" height="80" transform="translate(944 454)"/><g transform="translate(961.399 467.295)"><g transform="translate(-1 5.874)"><g transform="translate(0 0)"><path d="M44.418,32.818H24.292l19.859-19.86A.882.882,0,0,0,42.9,11.712L21.8,32.818H-.109A.841.841,0,0,0-1,33.709v5.343a.841.841,0,0,0,.891.891H14.674L.158,54.459a.861.861,0,0,0,0,1.247.808.808,0,0,0,.623.267.808.808,0,0,0,.623-.267L17.167,39.943H44.418a.841.841,0,0,0,.891-.891V33.709A.841.841,0,0,0,44.418,32.818ZM.781,38.162V34.6H20.017l-3.562,3.562ZM22.511,34.6H31.06v3.562H18.948Zm21.017,3.562H32.841V34.6H43.528v3.562Z" transform="translate(1 -10.931)"/><path d="M9.551,48.936a.841.841,0,0,0,.891-.891c0-4.186,1.959-7.481,4.453-7.481h4.453a.867.867,0,0,0,.891-.712.847.847,0,0,0-.356-.891,3.562,3.562,0,0,1,2.137-6.412.891.891,0,1,0,0-1.781,5.359,5.359,0,0,0-5.343,5.343,5.441,5.441,0,0,0,.712,2.672H14.894c-3.562,0-6.234,4.008-6.234,9.262A.841.841,0,0,0,9.551,48.936Z" transform="translate(-7.769 -28.474)"/><path d="M59.414,7.545A3.581,3.581,0,0,1,57.989,14.4a.841.841,0,0,0-.891.891.885.885,0,0,0,.623.891,1.9,1.9,0,0,1,1.158,1.781A1.786,1.786,0,0,1,57.1,19.746H51.755c-2.583,0-4.453,2.4-4.453,5.7a.891.891,0,1,0,1.781,0c0-2.226,1.158-3.918,2.672-3.918H57.1a3.573,3.573,0,0,0,3.562-3.562,3.838,3.838,0,0,0-.712-2.137,5.454,5.454,0,0,0,3.384-4.987,5.355,5.355,0,0,0-3.206-4.9.877.877,0,0,0-.712,1.6Z" transform="translate(-42.849 -5.874)"/></g></g></g></g></svg>