<svg xmlns="http://www.w3.org/2000/svg" width="80" height="80" viewBox="0 0 80 80"><defs><style>.a{fill:#d1c8c3;}</style></defs><g transform="translate(-852 -454)"><rect class="a" width="80" height="80" transform="translate(852 454)"/><g transform="translate(868.001 451.617)"><g transform="translate(-0.001 21.383)"><g transform="translate(0 0)"><path d="M122.931,219.081a24.154,24.154,0,0,1-4.821-7.308,8.249,8.249,0,0,0-15.228,0,23.3,23.3,0,0,1-5.158,7.628l-.01.009a8.262,8.262,0,0,0-2.749,6.147,8.176,8.176,0,0,0,3.729,6.932,9.142,9.142,0,0,0,7.495,1.21,17.393,17.393,0,0,1,8.647.018,9.082,9.082,0,0,0,7.46-1.173,8.3,8.3,0,0,0,.635-13.464Zm-1.7,11.856a7.158,7.158,0,0,1-5.878.925,19.31,19.31,0,0,0-9.676-.021,7.216,7.216,0,0,1-5.916-.954,6.266,6.266,0,0,1-2.872-5.329,6.332,6.332,0,0,1,2.1-4.708,24.808,24.808,0,0,0,5.656-8.314l.006-.015a6.322,6.322,0,0,1,11.676,0l.006.015a26.079,26.079,0,0,0,5.274,7.953.993.993,0,0,0,.087.077,6.371,6.371,0,0,1-.467,10.372Z" transform="translate(-85.815 -188.843)"/><path d="M127.676,34.541a9.789,9.789,0,0,0,1.059-5.9c-.489-4.144-3.347-7.616-6.541-7.233a4.922,4.922,0,0,0-3.611,2.665,9.8,9.8,0,0,0-1.059,5.9C118.323,36.742,124.624,39.871,127.676,34.541Zm-7.42-9.506a2.959,2.959,0,0,1,2.411-1.723c1.9,0,3.8,2.545,4.155,5.559A7.833,7.833,0,0,1,126,33.584c-2.221,3.879-6.04.609-6.565-3.836A7.839,7.839,0,0,1,120.256,25.034Z" transform="translate(-106.133 -21.383)"/><path d="M12.313,172.991a8.743,8.743,0,0,0-.954-5.348,8.743,8.743,0,0,0-3.81-3.873,5.223,5.223,0,0,0-4.784-.118,5.224,5.224,0,0,0-2.67,3.97,8.744,8.744,0,0,0,.954,5.348,8.744,8.744,0,0,0,3.81,3.873,5.238,5.238,0,0,0,4.784.119A5.224,5.224,0,0,0,12.313,172.991Zm-3.555,2.259a3.353,3.353,0,0,1-3.051-.137,6.812,6.812,0,0,1-2.946-3.027A6.81,6.81,0,0,1,2,167.93a3.353,3.353,0,0,1,1.653-2.567h0a3.374,3.374,0,0,1,3.05.137,6.811,6.811,0,0,1,2.946,3.028,6.811,6.811,0,0,1,.764,4.154A3.353,3.353,0,0,1,8.758,175.249Z" transform="translate(0.001 -149.47)"/><path d="M282.072,37.442c2.921,0,5.587-3.189,6.07-7.26.513-4.337-1.672-8.589-5.143-8.589-2.921,0-5.587,3.189-6.069,7.26C276.416,33.2,278.608,37.442,282.072,37.442Zm-3.228-8.363c.357-3.014,2.26-5.56,4.156-5.56a1.823,1.823,0,0,1,.235.013,3.251,3.251,0,0,1,2.291,1.929,8.046,8.046,0,0,1,.7,4.493c-.37,3.122-2.44,5.8-4.391,5.547h-.011a3.2,3.2,0,0,1-2.28-1.927A8.05,8.05,0,0,1,278.844,29.08Z" transform="translate(-250.18 -21.573)"/><path d="M395.526,167.673a4.972,4.972,0,0,0-7.454-3.852,9.18,9.18,0,0,0-4.764,9.221,4.972,4.972,0,0,0,7.454,3.851A9.179,9.179,0,0,0,395.526,167.673Zm-5.613,7.491a3.354,3.354,0,0,1-3.051.137h0a3.354,3.354,0,0,1-1.653-2.567,7.262,7.262,0,0,1,3.711-7.183,3.063,3.063,0,0,1,4.7,2.431A7.261,7.261,0,0,1,389.913,175.164Z" transform="translate(-346.289 -149.518)"/></g></g></g></g></svg>