<svg xmlns="http://www.w3.org/2000/svg" width="80" height="80" viewBox="0 0 80 80"><defs><style>.a{fill:#d1c8c3;}</style></defs><g transform="translate(-1036 -454)"><rect class="a" width="80" height="80" transform="translate(1036 454)"/><g transform="translate(1054.088 473)"><path d="M9.412,27.988A44.668,44.668,0,0,0,24.269,39.627a23.124,23.124,0,0,0,8.314,2.46c.2.009.393.017.593.017a6.885,6.885,0,0,0,5.339-2.295.19.19,0,0,0,.035-.044,22.482,22.482,0,0,1,1.684-1.745c.41-.393.829-.8,1.23-1.221a4.213,4.213,0,0,0-.017-6.273L36.2,25.284a4.244,4.244,0,0,0-3.071-1.413,4.387,4.387,0,0,0-3.106,1.4L26.9,28.4c-.288-.166-.585-.314-.864-.454a10.789,10.789,0,0,1-.96-.523,33.056,33.056,0,0,1-7.9-7.189,19.036,19.036,0,0,1-2.67-4.258c.82-.742,1.588-1.518,2.329-2.277.262-.27.532-.541.8-.811A4.473,4.473,0,0,0,19.1,9.745,4.437,4.437,0,0,0,17.648,6.6L15.048,4c-.305-.305-.593-.6-.89-.907-.576-.593-1.178-1.2-1.771-1.754A4.349,4.349,0,0,0,9.316,0,4.478,4.478,0,0,0,6.21,1.352L2.947,4.615a6.7,6.7,0,0,0-2,4.292,16.147,16.147,0,0,0,1.213,6.98A40.6,40.6,0,0,0,9.412,27.988ZM3.078,9.091A4.615,4.615,0,0,1,4.465,6.125L7.71,2.879a2.349,2.349,0,0,1,1.605-.742,2.229,2.229,0,0,1,1.57.759c.585.541,1.134,1.108,1.727,1.71.3.305.6.611.907.925l2.6,2.6a2.369,2.369,0,0,1,.82,1.631,2.369,2.369,0,0,1-.82,1.631c-.27.27-.541.55-.811.82-.811.82-1.57,1.6-2.408,2.338l-.044.044a1.706,1.706,0,0,0-.436,1.937c.009.026.017.044.026.07a20.533,20.533,0,0,0,3.062,4.982,34.888,34.888,0,0,0,8.41,7.66,12.488,12.488,0,0,0,1.152.628,10.788,10.788,0,0,1,.96.523c.035.017.061.035.1.052a1.824,1.824,0,0,0,.846.218,1.85,1.85,0,0,0,1.3-.593l3.263-3.263a2.309,2.309,0,0,1,1.6-.776,2.191,2.191,0,0,1,1.544.776l5.261,5.252a2.1,2.1,0,0,1-.026,3.289c-.366.393-.75.768-1.16,1.16a25.125,25.125,0,0,0-1.823,1.893,4.79,4.79,0,0,1-3.743,1.588c-.148,0-.305-.009-.454-.017a21.008,21.008,0,0,1-7.521-2.251,42.435,42.435,0,0,1-14.142-11.08A38.866,38.866,0,0,1,4.177,15.172,14.071,14.071,0,0,1,3.078,9.091Z"/></g></g></svg>