<svg xmlns="http://www.w3.org/2000/svg" width="80" height="80" viewBox="0 0 80 80"><defs><style>.a{fill:#d1c8c3;}</style></defs><g transform="translate(-668 -454)"><rect class="a" width="80" height="80" transform="translate(668 454)"/><path d="M44.862,26.605a2.756,2.756,0,0,0-2.752-2.752h-.917V9.174h.917a.917.917,0,0,0,.917-.917V3.67a.917.917,0,0,0-.917-.917H31.1V.917A.917.917,0,0,0,30.183,0h-5.5a.917.917,0,0,0-.917.917V2.752H12.752a.917.917,0,0,0-.917.917V8.257a.917.917,0,0,0,.917.917h.917V23.853h-.917a2.746,2.746,0,0,0-.917,5.336v6.627A10.067,10.067,0,0,0,21.89,45.871h.037v6.422a.917.917,0,0,0,.917.917h9.174a.917.917,0,0,0,.917-.917V45.871h.037A10.067,10.067,0,0,0,43.027,35.815V29.189A2.749,2.749,0,0,0,44.862,26.605ZM25.6,1.835h3.67v.917H25.6ZM13.67,4.587H41.193V7.339H13.67ZM15.5,9.174H39.358V23.853H15.5Zm15.6,42.2H23.761v-5.5H31.1Zm10.092-15.56a8.23,8.23,0,0,1-8.22,8.221H21.89a8.23,8.23,0,0,1-8.22-8.221V29.358H41.193Zm.917-8.293H12.752a.917.917,0,1,1,0-1.835H42.11a.917.917,0,1,1,0,1.835Z" transform="translate(681 468)"/></g></svg>