<svg xmlns="http://www.w3.org/2000/svg" width="42" height="28" viewBox="0 0 42 28"><path d="M69.826,116.613a5.893,5.893,0,1,0,5.893,5.893A5.9,5.9,0,0,0,69.826,116.613Zm0,9.308a3.415,3.415,0,1,1,3.415-3.415A3.419,3.419,0,0,1,69.826,125.921Zm0,0" transform="translate(-58.636 -106.644)"/><path d="M310.026,116.613a5.893,5.893,0,1,0,5.893,5.893A5.9,5.9,0,0,0,310.026,116.613Zm0,9.308a3.415,3.415,0,1,1,3.415-3.415A3.419,3.419,0,0,1,310.026,125.921Zm0,0" transform="translate(-279.357 -106.644)"/><path d="M42,4.444H32.608A16.651,16.651,0,0,0,20.93,0,17.31,17.31,0,0,0,9.258,4.444H.078l2.5,4.094A11.537,11.537,0,0,0,0,15.837,11.252,11.252,0,0,0,11.078,27.231a10.906,10.906,0,0,0,8.031-3.553L20.93,28l1.821-4.323a10.906,10.906,0,0,0,8.031,3.553A11.252,11.252,0,0,0,41.861,15.837,11.54,11.54,0,0,0,39.4,8.692Zm-13.185.18a11.149,11.149,0,0,0-7.884,6.007,11.152,11.152,0,0,0-7.813-5.992A15.511,15.511,0,0,1,20.93,2.522,15.238,15.238,0,0,1,28.815,4.624ZM11.078,24.708a8.761,8.761,0,0,1-8.625-8.871,8.76,8.76,0,0,1,8.625-8.871A8.76,8.76,0,0,1,19.7,15.837,8.761,8.761,0,0,1,11.078,24.708Zm19.7,0a8.761,8.761,0,0,1-8.626-8.871,8.629,8.629,0,1,1,17.251,0A8.761,8.761,0,0,1,30.783,24.708Zm0,0"/><path d="M120.674,172.055a1.3,1.3,0,1,0,1.3,1.3A1.3,1.3,0,0,0,120.674,172.055Zm0,0" transform="translate(-109.589 -157.513)"/><path d="M361.584,172.055a1.3,1.3,0,1,0,1.3,1.3A1.3,1.3,0,0,0,361.584,172.055Zm0,0" transform="translate(-330.75 -157.513)"/></svg>