<svg xmlns="http://www.w3.org/2000/svg" width="80" height="80" viewBox="0 0 80 80"><defs><style>.a{fill:#d1c8c3;}</style></defs><g transform="translate(-760 -454)"><rect class="a" width="80" height="80" transform="translate(760 454)"/><g transform="translate(772.003 464.998)"><path d="M54.9,20.553C47.617,12.387,37.92,7.89,27.6,7.89s-20.02,4.5-27.3,12.663a1.225,1.225,0,0,0,0,1.594.929.929,0,0,0,1.421,0,34.472,34.472,0,0,1,25.88-12,34.475,34.475,0,0,1,25.88,12,.93.93,0,0,0,1.421,0A1.223,1.223,0,0,0,54.9,20.553Z" transform="translate(0 0)"/><path d="M6.163,26.121a1.257,1.257,0,0,0,0,1.594.88.88,0,0,0,1.374,0c10.647-12.351,27.972-12.351,38.62,0a.879.879,0,0,0,1.374,0,1.257,1.257,0,0,0,0-1.594C36.127,12.893,17.569,12.89,6.163,26.121Z" transform="translate(0.748 1.058)"/><path d="M26.1,24.508c-5.322,0-10.32,2.551-14.075,7.182a1.319,1.319,0,0,0,0,1.594.8.8,0,0,0,1.292,0A16.432,16.432,0,0,1,26.1,26.763a16.432,16.432,0,0,1,12.783,6.522.8.8,0,0,0,1.292,0,1.319,1.319,0,0,0,0-1.594C36.42,27.059,31.422,24.508,26.1,24.508Z" transform="translate(1.497 2.116)"/><path d="M28.288,33.916A7.386,7.386,0,1,0,35.674,41.3,7.394,7.394,0,0,0,28.288,33.916Zm0,12.517A5.132,5.132,0,1,1,33.42,41.3,5.136,5.136,0,0,1,28.288,46.433Z" transform="translate(-0.692 3.314)"/></g></g></svg>